# xmcd
#
# Track frame offsets:
#	150
#	11372
#	22754
#	34825
#	49110
#	60119
#	71169
#	83653
#	96312
#	108591
#	122592
#	134562
#	147016
#	158313
#	164889
#	178126
#	205547
#
# Disc length: 2890 seconds
#
# Revision: 1
# Processed by: cddbd v1.4PL0 Copyright (c) Steve Scherf et al.
# Submitted via: audiograbber 1.81.03
#
DISCID=da0b4811
DTITLE=Various Artist - Country Collection [CD2]
DYEAR=1900
DGENRE=
TTITLE0=George Jones - Swinging Doors
TTITLE1=Roy Drusky - Blue Eyes Crying In The Rain
TTITLE2=Don Williams - On Her Way To Being A Woman
TTITLE3=Boxcar Willie - He'll Have To Go
TTITLE4=Faron Young - Wine Me Up
TTITLE5=Sanford Clark - Big Time Day Tomorrow
TTITLE6=LeRoy Van Dyke - The Auctioneer
TTITLE7=Freddy Fender - Almost Persuaded
TTITLE8=Johnny Paycheck - All The Time
TTITLE9=Carl Perkins - Georgia Courtroom
TTITLE10=Jerry Wallace - Release Me
TTITLE11=Merle Kilgore - 42 In Chicago
TTITLE12=Carl Belew - Little Miss Heartache
TTITLE13=Tennessee Ernie Ford - You Gotta See Mama
TTITLE14=Ferlin Husky - Room Full Of Roses
TTITLE15=Jerry Lee Lewis - Mexicali Rose
TTITLE16=Don Gibson - A Legend In My Time
EXTD=
EXTT0=
EXTT1=
EXTT2=
EXTT3=
EXTT4=
EXTT5=
EXTT6=
EXTT7=
EXTT8=
EXTT9=
EXTT10=
EXTT11=
EXTT12=
EXTT13=
EXTT14=
EXTT15=
EXTT16=
PLAYORDER=
